<?xml version="1.0" standalone="no"?>
<!DOCTYPE svg PUBLIC "-//W3C//DTD SVG 20010904//EN"
 "http://www.w3.org/TR/2001/REC-SVG-20010904/DTD/svg10.dtd">
<svg version="1.0" xmlns="http://www.w3.org/2000/svg"
 width="208.000000pt" height="243.000000pt" viewBox="0 0 208.000000 243.000000"
 preserveAspectRatio="xMidYMid meet">

<g transform="translate(0.000000,243.000000) scale(0.100000,-0.100000)"
fill="#000000" stroke="none">
<path d="M0 1215 l0 -1215 1040 0 1040 0 0 1215 0 1215 -1040 0 -1040 0 0
-1215z m1316 1058 c-3 -21 -6 -46 -6 -56 0 -11 -6 -17 -12 -14 -21 6 -7 107
14 107 7 0 8 -14 4 -37z m-75 -33 c11 -48 -1 -74 -23 -51 -11 11 -10 12 1 6
11 -6 13 -4 7 11 -14 33 -24 83 -18 89 10 10 23 -12 33 -55z m126 -35 c-27
-40 -44 -34 -22 8 7 14 10 29 7 33 -4 4 -2 4 5 0 6 -3 15 -1 19 6 6 9 9 9 12
0 2 -6 -8 -27 -21 -47z m-262 27 c-3 -3 -11 0 -18 7 -9 10 -8 11 6 5 10 -3 15
-9 12 -12z m162 -4 c-3 -8 -6 -5 -6 6 -1 11 2 17 5 13 3 -3 4 -12 1 -19z m-62
-48 c4 -6 3 -10 -2 -9 -4 1 -14 1 -22 0 -26 -2 21 -30 50 -31 32 0 45 -25 22
-39 -13 -7 -27 0 -60 27 -24 20 -43 40 -43 45 0 4 4 6 8 3 4 -2 14 -1 22 5 19
11 18 11 25 -1z m230 -9 c-15 -14 -86 -41 -80 -30 4 5 21 16 38 23 38 17 55
20 42 7z m-100 -42 c8 -12 -23 -49 -42 -49 -17 0 -17 10 3 38 17 24 29 28 39
11z m80 1 c-3 -5 -12 -10 -18 -10 -7 0 -6 4 3 10 19 12 23 12 15 0z m-220 -54
c2 -15 -1 -24 -5 -21 -5 3 -6 13 -3 22 4 10 2 14 -5 9 -7 -4 -10 1 -9 14 2 27
19 9 22 -24z m-238 6 c13 -13 33 -47 44 -75 29 -77 41 -97 52 -90 6 4 8 0 4
-10 -4 -10 -1 -17 5 -17 6 0 9 -3 5 -6 -3 -4 5 -28 18 -55 33 -64 33 -133 1
-202 -29 -62 -60 -97 -86 -97 -10 0 -28 -12 -40 -27 -47 -60 -112 -80 -158
-48 -19 14 -21 14 -16 1 8 -21 -58 -25 -116 -7 -60 18 -105 63 -120 117 -7 24
-17 44 -22 44 -6 0 -7 7 -4 16 3 8 1 25 -6 37 -7 12 -13 30 -15 40 -2 10 -12
35 -23 57 -27 54 -25 85 8 117 15 16 33 40 40 56 6 15 17 26 24 25 7 -2 20 12
28 29 9 19 23 33 33 33 10 0 15 5 12 10 -3 6 0 10 7 11 7 1 20 2 28 3 8 2 25
3 38 4 13 1 21 5 19 10 -3 4 13 8 36 10 26 2 47 10 56 22 24 29 116 24 148 -8z
m260 -44 c-3 -8 -6 -5 -6 6 -1 11 2 17 5 13 3 -3 4 -12 1 -19z m45 -74 c-3
-90 -11 -129 -39 -196 -10 -23 -20 -35 -29 -31 -19 7 -18 30 5 127 11 44 25
107 31 139 18 90 36 69 32 -39z m55 44 c-3 -8 -6 -5 -6 6 -1 11 2 17 5 13 3
-3 4 -12 1 -19z m-118 -50 c-7 -24 -12 -46 -11 -50 1 -5 -5 -8 -13 -8 -19 0
-19 3 5 50 11 22 20 47 21 57 0 10 3 13 5 6 3 -6 0 -31 -7 -55z m-59 -26 c0
-4 -8 -12 -18 -18 -15 -10 -18 -8 -19 7 -1 13 5 19 18 19 10 0 19 -3 19 -8z
m40 -74 c0 -16 -3 -19 -11 -11 -6 6 -8 16 -5 22 11 17 16 13 16 -11z m-13 -50
c-3 -8 -6 -5 -6 6 -1 11 2 17 5 13 3 -3 4 -12 1 -19z m-10 -110 c-3 -8 -6 -5
-6 6 -1 11 2 17 5 13 3 -3 4 -12 1 -19z m380 -35 c-3 -10 -5 -2 -5 17 0 19 2
27 5 18 2 -10 2 -26 0 -35z m-1036 -49 c6 -18 4 -21 -12 -17 -10 3 -26 0 -34
-7 -12 -10 -15 -9 -15 7 0 43 46 56 61 17z m1030 -16 c-4 -35 -6 -38 -9 -15
-3 26 3 57 10 57 2 0 1 -19 -1 -42z m-71 -327 c-19 -103 -57 -230 -79 -268
-16 -27 -13 -13 12 68 13 41 29 103 36 139 7 36 19 92 27 126 8 33 15 98 16
145 l2 84 3 -93 c3 -63 -3 -126 -17 -201z m51 166 c-11 -85 -38 -207 -40 -180
-1 6 5 42 13 80 8 37 17 102 21 143 5 41 10 69 13 62 2 -8 -1 -55 -7 -105z
m-1021 -22 c10 -12 7 -15 -14 -21 -14 -3 -24 -10 -21 -14 5 -8 -36 -22 -44
-14 -10 10 41 46 57 40 13 -5 13 -3 -2 9 -16 12 -17 15 -4 15 8 0 21 -7 28
-15z m54 -41 c11 -28 6 -54 -9 -54 -10 0 -15 11 -15 35 0 36 13 47 24 19z
m-94 -28 c0 -8 -6 -17 -12 -19 -16 -7 36 -57 58 -57 8 0 14 -4 14 -10 0 -16
-22 -12 -58 10 -41 25 -57 60 -34 78 21 16 32 15 32 -2z m201 -170 c10 -16 16
-32 14 -34 -2 -2 -20 6 -40 18 -42 26 -89 85 -80 100 9 14 82 -44 106 -84z
m69 71 c0 -14 -20 -37 -32 -37 -12 0 -10 24 4 38 16 16 28 15 28 -1z m747 -39
c-3 -8 -6 -5 -6 6 -1 11 2 17 5 13 3 -3 4 -12 1 -19z m-10 -50 c-3 -7 -5 -2
-5 12 0 14 2 19 5 13 2 -7 2 -19 0 -25z m-585 -140 c-17 -8 -26 -8 -34 0 -9 9
-4 12 23 11 32 0 33 -1 11 -11z m-454 -425 c51 -44 102 -115 101 -141 0 -25
-1 -25 -13 8 -9 24 -15 30 -19 20 -3 -9 -6 -2 -7 15 l-1 30 -20 -40 c-18 -35
-19 -45 -8 -80 17 -59 47 -113 69 -127 11 -7 20 -20 20 -28 -1 -35 -80 75
-110 153 -36 95 -74 157 -95 157 -22 0 -18 17 7 34 29 21 51 20 76 -1z m1226
-64 c34 -26 33 -33 -6 -44 -28 -9 -39 -24 -85 -115 -34 -68 -66 -116 -91 -137
-50 -44 -66 -42 -19 3 21 20 51 63 68 95 l29 59 -19 38 c-18 34 -20 35 -21 12
0 -19 -2 -22 -9 -11 -8 12 -11 9 -16 -12 -4 -15 -11 -27 -17 -27 -5 0 -6 10
-3 23 9 29 123 137 145 137 10 0 29 -9 44 -21z"/>
<path d="M875 2002 c-36 -12 -63 -37 -70 -65 -6 -23 -4 -27 14 -27 18 0 21 -6
21 -49 0 -39 5 -53 26 -75 25 -25 62 -37 49 -16 -3 6 -12 10 -20 10 -41 0 -61
102 -27 133 23 21 46 21 77 1 46 -30 51 -109 7 -129 -24 -11 -31 -31 -7 -21 8
3 15 0 16 -7 1 -11 7 1 24 51 4 12 10 22 14 22 4 0 16 7 27 15 18 15 18 15 -8
9 -24 -5 -28 -3 -28 14 0 12 -11 32 -24 46 -28 31 -80 35 -108 9 -11 -9 -18
-11 -18 -5 0 7 5 12 10 12 6 0 10 7 10 15 0 8 5 15 11 15 5 0 8 4 5 9 -8 12
39 20 57 9 14 -7 36 7 26 16 -10 9 -66 13 -84 8z"/>
<path d="M892 1898 c-17 -17 -15 -39 3 -32 9 4 15 0 15 -9 0 -9 3 -24 6 -34 4
-13 0 -11 -15 7 -24 29 -28 15 -5 -18 27 -38 74 -22 74 25 0 23 -40 73 -58 73
-4 0 -13 -5 -20 -12z"/>
<path d="M540 1820 c-19 -19 -28 -70 -12 -70 4 0 13 9 20 20 7 12 23 20 40 20
l27 0 -28 -23 c-22 -17 -29 -33 -32 -67 l-4 -45 9 43 c5 23 12 47 15 52 16 25
93 -1 100 -34 2 -12 6 -32 8 -46 3 -18 5 -15 6 11 1 27 -7 46 -29 74 -16 21
-30 44 -30 51 0 15 -31 34 -54 34 -9 0 -25 -9 -36 -20z"/>
<path d="M586 1724 c-18 -46 8 -94 51 -94 12 0 23 -5 25 -11 2 -6 4 9 5 32 1
25 -4 54 -13 66 -17 27 -59 31 -68 7z m31 -47 c1 -15 -2 -27 -8 -27 -5 0 -9 3
-9 8 0 4 -3 18 -7 31 -4 18 -2 22 8 19 7 -2 15 -17 16 -31z"/>
<path d="M797 1700 c-3 -11 -11 -20 -17 -20 -7 0 -10 7 -6 15 3 9 0 15 -9 15
-18 0 -20 -31 -3 -48 17 -17 35 -15 59 9 16 16 18 23 8 35 -16 19 -26 18 -32
-6z"/>
<path d="M914 1683 c3 -7 1 -13 -4 -13 -6 0 -10 -11 -10 -25 0 -47 -75 -87
-130 -70 -18 6 -19 9 -8 23 11 14 10 14 -8 0 -11 -10 -28 -18 -37 -18 -9 0
-17 -4 -17 -10 0 -5 5 -10 11 -10 6 0 24 -11 41 -25 38 -32 93 -33 139 -2 34
23 46 49 48 105 1 25 5 32 21 32 34 0 22 18 -15 22 -26 3 -34 1 -31 -9z"/>
<path d="M794 1624 c-18 -14 -18 -15 4 -4 12 6 22 13 22 15 0 8 -5 6 -26 -11z"/>
<path d="M564 1619 c-3 -5 6 -9 20 -9 31 0 34 6 6 13 -11 3 -23 1 -26 -4z"/>
<path d="M630 1603 c8 -3 19 -11 23 -17 6 -7 7 -6 4 4 -2 8 -12 16 -23 17 -13
2 -15 1 -4 -4z"/>
<path d="M871 1505 c-34 -17 -40 -23 -26 -28 28 -11 44 -8 65 13 20 20 27 41
13 39 -5 -1 -28 -12 -52 -24z"/>
</g>
</svg>
